<?xml version="1.0" standalone="no"?>
<!DOCTYPE svg PUBLIC "-//W3C//DTD SVG 20010904//EN"
 "http://www.w3.org/TR/2001/REC-SVG-20010904/DTD/svg10.dtd">
<svg version="1.0" xmlns="http://www.w3.org/2000/svg"
 width="400.000000pt" height="400.000000pt" viewBox="0 0 400.000000 400.000000"
 preserveAspectRatio="xMidYMid meet">

<g transform="translate(0.000000,400.000000) scale(0.100000,-0.100000)"
fill="#000000" stroke="none">
<path d="M3715 3641 c-44 -16 -640 -243 -1325 -506 -685 -262 -1398 -535
-1585 -607 -736 -282 -724 -276 -776 -335 -49 -56 -33 -115 44 -161 17 -11
245 -86 505 -167 l473 -146 37 23 c20 12 303 188 627 391 1612 1008 1484 931
1534 931 95 2 86 -8 -416 -459 -715 -642 -1258 -1129 -1260 -1130 -2 -1 -16
-192 -33 -426 -16 -233 -31 -443 -34 -466 -3 -41 -2 -43 23 -43 35 1 99 32
136 66 17 15 128 122 247 237 147 141 221 206 230 201 13 -8 237 -172 687
-502 123 -91 245 -174 270 -185 56 -25 135 -26 179 -4 38 21 73 72 95 142 9
28 68 298 132 600 65 303 201 937 303 1410 199 925 210 991 174 1062 -24 47
-47 68 -95 88 -51 21 -80 19 -172 -14z"/>
</g>
</svg>
